<svg width="59" height="126" viewBox="0 0 59 126" fill="none" xmlns="http://www.w3.org/2000/svg">
  <path d="M52.8871 4.09325L32.0826 0.798136C31.1066 0.643561 30.1093 0.883011 29.3099 1.46381C28.5105 2.0446 27.9745 2.91917 27.82 3.89512C27.6654 4.87106 27.9048 5.86844 28.4856 6.66784C29.0664 7.46724 29.941 8.00317 30.9169 8.15775L31.8764 8.30638L22.4227 38.982L10.1236 52.3191C9.62567 52.8592 9.29749 53.5338 9.17989 54.2589L0.592704 108.434C0.129356 111.36 0.84732 114.351 2.58867 116.747C4.33001 119.144 6.95211 120.751 9.87818 121.215L36.7941 125.478C39.7202 125.941 42.7105 125.223 45.1072 123.482C47.504 121.74 49.1109 119.118 49.5744 116.192L58.1568 62.0261C58.2704 61.3001 58.1667 60.5567 57.8587 59.8896L50.283 43.4046L50.7712 11.309L51.7297 11.4642C52.2129 11.5407 52.7065 11.5213 53.1823 11.4071C53.658 11.2929 54.1066 11.0861 54.5024 10.7985C54.8982 10.5109 55.2335 10.1482 55.4892 9.73101C55.7448 9.31385 55.9158 8.85042 55.9923 8.36718C56.0689 7.88394 56.0495 7.39036 55.9352 6.91461C55.821 6.43887 55.6142 5.99028 55.3267 5.59446C55.0391 5.19863 54.6763 4.86334 54.2592 4.6077C53.842 4.35206 53.3786 4.18109 52.8953 4.10455L52.8871 4.09325ZM14.3064 69.5029L48.5624 74.9285L43.9605 103.983L9.70455 98.5577L14.3064 69.5029ZM40.722 117.446C40.3275 117.734 39.8797 117.941 39.4047 118.055C38.9296 118.169 38.4366 118.188 37.9542 118.111L11.0514 113.85C10.0764 113.695 9.20283 113.159 8.6226 112.361C8.04237 111.562 7.803 110.566 7.95711 109.591L8.53993 105.911L42.7959 111.336L42.2018 115.024C42.0475 115.995 41.5155 116.866 40.722 117.446ZM42.8147 44.1245C42.8057 44.6801 42.9224 45.2306 43.1561 45.7347L50.6156 61.9647L49.727 67.5754L15.471 62.1498L16.3597 56.5391L28.4694 43.4086C28.8475 43.0013 29.1286 42.5139 29.2917 41.9827L39.3075 9.48335L43.3319 10.1208L42.8147 44.1245Z"/>
  <style>
    path { fill: #222222; }
    @media (prefers-color-scheme: dark) {
      path { fill: #F0F0F0; }
    }
  </style>
</svg>