<svg width="520" height="200" viewBox="0 0 520 200" fill="none" xmlns="http://www.w3.org/2000/svg">
  <g clip-path="url(#clip0_5_135)">
    <path d="M45.36 92.44C43.88 92.44 42.52 92.38 41.28 92.26C40.08 92.18 38.72 92 37.2 91.72C35.68 91.44 33.76 91 31.44 90.4C32.08 89 32.92 87.5 33.96 85.9C35.04 84.3 36.36 82.94 37.92 81.82C39.48 80.66 41.36 80.08 43.56 80.08C43.64 80.08 43.72 80.08 43.8 80.08C43.92 80.08 44 80.08 44.04 80.08C48.56 80 52.44 79 55.68 77.08C58.92 75.16 61.58 72.64 63.66 69.52C65.78 66.36 67.34 62.86 68.34 59.02C69.34 55.14 69.84 51.2 69.84 47.2C69.84 40.92 68.72 35.32 66.48 30.4C64.28 25.48 60.78 21.62 55.98 18.82C51.18 15.98 44.92 14.56 37.2 14.56C35.64 14.56 34 14.64 32.28 14.8C30.56 14.96 28.76 15.2 26.88 15.52V91H9.96V5.31999C15.32 4.16 20.32 3.36 24.96 2.92C29.64 2.44 33.72 2.2 37.2 2.2C47.84 2.2 56.94 3.98 64.5 7.54C72.1 11.06 77.9 16.18 81.9 22.9C85.94 29.62 87.96 37.72 87.96 47.2C87.96 53.52 86.9 59.42 84.78 64.9C82.66 70.38 79.68 75.18 75.84 79.3C72 83.42 67.48 86.64 62.28 88.96C57.12 91.28 51.48 92.44 45.36 92.44ZM99.6084 91V4.83999C103.928 4.11999 107.588 3.55999 110.588 3.15999C113.588 2.75999 116.348 2.48 118.868 2.32C121.388 2.15999 124.088 2.07999 126.968 2.07999C133.248 2.07999 138.988 3.14 144.188 5.26C149.388 7.34 153.528 10.38 156.608 14.38C159.728 18.38 161.288 23.2 161.288 28.84C161.288 33.56 160.188 37.7 157.988 41.26C155.828 44.82 152.968 47.68 149.408 49.84L146.048 51.16L148.688 52.48C151.128 54.56 153.028 57.02 154.388 59.86C155.748 62.66 156.888 65.74 157.808 69.1C158.768 72.46 159.768 76 160.808 79.72C161.848 83.4 163.248 87.16 165.008 91H147.368C145.968 87.92 144.808 84.66 143.888 81.22C143.008 77.78 142.128 74.4 141.248 71.08C140.368 67.76 139.268 64.7 137.948 61.9C136.628 59.1 134.848 56.84 132.608 55.12C130.928 55.24 129.128 55.24 127.208 55.12C125.328 55 123.368 54.64 121.328 54.04C121.928 52.52 122.688 50.94 123.608 49.3C124.528 47.66 125.648 46.24 126.968 45.04C128.288 43.84 129.848 43.16 131.648 43C133.848 42.8 135.848 42.08 137.648 40.84C139.488 39.56 140.948 37.9 142.028 35.86C143.108 33.78 143.648 31.44 143.648 28.84C143.648 26.08 142.908 23.62 141.428 21.46C139.948 19.26 137.948 17.54 135.428 16.3C132.908 15.06 130.088 14.44 126.968 14.44C124.808 14.44 123.128 14.5 121.928 14.62C120.728 14.74 119.048 14.92 116.888 15.16V91H99.6084Z" fill="#222222"/>
    <path d="M3.6 196L34.92 108.76H51.72L83.04 196H65.28L43.68 131.08L42.72 126.64L41.64 131.32L31.44 162.4L30 164.8L31.8 164.56H40.92C43.24 164.56 45.18 165.22 46.74 166.54C48.34 167.86 49.62 169.48 50.58 171.4C51.58 173.32 52.36 175.16 52.92 176.92H26.88L20.52 196H3.6ZM96.5616 196V109.84C100.882 109.12 104.542 108.56 107.542 108.16C110.542 107.76 113.302 107.48 115.822 107.32C118.342 107.16 121.042 107.08 123.922 107.08C130.402 107.08 136.222 108.18 141.382 110.38C146.582 112.58 150.682 115.74 153.682 119.86C156.722 123.94 158.242 128.8 158.242 134.44C158.242 139.76 156.902 144.36 154.222 148.24C151.582 152.08 148.142 155.12 143.902 157.36C139.662 159.56 135.162 160.88 130.402 161.32C128.602 161.48 126.682 161.5 124.642 161.38C122.642 161.26 120.522 160.88 118.282 160.24C118.882 158.72 119.642 157.16 120.562 155.56C121.482 153.92 122.602 152.52 123.922 151.36C125.242 150.16 126.802 149.48 128.602 149.32C130.802 149.12 132.802 148.34 134.602 146.98C136.442 145.58 137.902 143.8 138.982 141.64C140.062 139.44 140.602 137.04 140.602 134.44C140.602 131.68 139.902 129.18 138.502 126.94C137.102 124.66 135.142 122.84 132.622 121.48C130.142 120.12 127.242 119.44 123.922 119.44C121.762 119.44 120.082 119.5 118.882 119.62C117.682 119.74 116.002 119.92 113.842 120.16V196H96.5616Z" fill="#222222"/>
    <g clip-path="url(#clip1_5_135)">
      <path d="M254.413 7.6384L221.666 2.45165C220.129 2.20834 218.559 2.58525 217.301 3.49946C216.043 4.41368 215.199 5.79031 214.956 7.32652C214.713 8.86274 215.089 10.4327 216.004 11.691C216.918 12.9493 218.294 13.7929 219.831 14.0362L221.341 14.2702L206.46 62.5559L187.1 83.5494C186.317 84.3996 185.8 85.4614 185.615 86.6029L172.098 171.879C171.369 176.485 172.499 181.192 175.24 184.964C177.981 188.737 182.108 191.266 186.714 191.996L229.082 198.706C233.688 199.436 238.395 198.306 242.167 195.565C245.94 192.824 248.469 188.696 249.199 184.09L262.708 98.829C262.887 97.6863 262.724 96.5161 262.239 95.466L250.314 69.5174L251.083 18.9966L252.592 19.2408C253.352 19.3612 254.129 19.3307 254.878 19.1509C255.627 18.9711 256.333 18.6456 256.956 18.1929C257.579 17.7403 258.107 17.1693 258.509 16.5127C258.912 15.856 259.181 15.1265 259.301 14.3659C259.422 13.6052 259.391 12.8283 259.211 12.0794C259.032 11.3306 258.706 10.6245 258.253 10.0014C257.801 9.37835 257.23 8.85057 256.573 8.44817C255.916 8.04578 255.187 7.77666 254.426 7.65618L254.413 7.6384ZM193.684 110.598L247.606 119.138L240.362 164.873L186.441 156.333L193.684 110.598ZM235.265 186.064C234.644 186.518 233.939 186.844 233.191 187.023C232.443 187.203 231.667 187.232 230.908 187.11L188.561 180.403C187.026 180.159 185.651 179.316 184.738 178.059C183.824 176.802 183.448 175.234 183.69 173.699L184.608 167.907L238.529 176.447L237.594 182.252C237.351 183.781 236.514 185.151 235.265 186.064ZM238.559 70.6505C238.544 71.5251 238.728 72.3916 239.096 73.1852L250.838 98.7323L249.439 107.564L195.518 99.0237L196.916 90.192L215.978 69.5236C216.573 68.8826 217.016 68.1153 217.272 67.2791L233.038 16.1228L239.373 17.1261L238.559 70.6505Z" fill="#222222"/>
    </g>
    <path d="M283.28 91V3.75999H299.84L336.68 62.44L338.36 67.24L338.12 62.44V3.75999H353.24V91H338.12L299.6 29.92L297.68 25.6L297.92 29.68V91H283.28ZM428.878 91L409.198 52.36L408.358 49.48L406.918 52.12L399.358 61.84C398.438 58.28 398.158 54.64 398.518 50.92C398.878 47.2 399.698 43.66 400.978 40.3C402.258 36.9 403.838 33.92 405.718 31.36L425.518 3.75999H444.358L417.478 38.68L448.558 91H428.878ZM375.358 91V3.75999H392.518V91H375.358ZM483.597 92.56C480.197 92.56 476.217 92.08 471.657 91.12C467.097 90.2 462.077 88.48 456.597 85.96L461.157 74.8C465.477 76.84 469.537 78.26 473.337 79.06C477.137 79.82 480.557 80.2 483.597 80.2C487.877 80.2 491.397 79.08 494.157 76.84C496.957 74.6 498.357 71.92 498.357 68.8C498.357 65.88 497.377 63.38 495.417 61.3C493.457 59.18 490.937 57.26 487.857 55.54C484.777 53.78 481.497 52 478.017 50.2C474.537 48.4 471.257 46.38 468.177 44.14C465.097 41.9 462.577 39.24 460.617 36.16C458.657 33.08 457.677 29.36 457.677 25C457.677 19.76 458.877 15.46 461.277 12.1C463.717 8.74 466.937 6.26 470.937 4.66C474.937 3.02 479.317 2.2 484.077 2.2C487.757 2.2 491.337 2.46 494.817 2.97999C498.297 3.46 502.557 4.52 507.597 6.16L503.157 17.08C499.637 16.04 496.417 15.3 493.497 14.86C490.577 14.42 487.797 14.2 485.157 14.2C481.557 14.2 478.677 15.08 476.517 16.84C474.357 18.6 473.277 20.84 473.277 23.56C473.277 26.28 474.257 28.66 476.217 30.7C478.217 32.7 480.757 34.56 483.837 36.28C486.957 38 490.257 39.8 493.737 41.68C497.217 43.56 500.497 45.68 503.577 48.04C506.697 50.4 509.237 53.24 511.197 56.56C513.197 59.84 514.197 63.8 514.197 68.44C514.197 73.6 512.917 77.98 510.357 81.58C507.797 85.14 504.217 87.86 499.617 89.74C495.017 91.62 489.677 92.56 483.597 92.56Z" fill="#222222"/>
  </g>
  <defs>
    <clipPath id="clip0_5_135">
      <rect width="520" height="200" fill="white"/>
    </clipPath>
    <clipPath id="clip1_5_135">
      <rect width="100" height="200" fill="white" transform="translate(172)"/>
    </clipPath>
  </defs>
</svg>